<svg width="400" height="600" viewBox="0 0 400 600" xmlns="http://www.w3.org/2000/svg">
<rect width="400" height="600" fill="#0d1408"/>
<polygon points="60,70 86,85 86,115 60,130 34,115 34,85" stroke="#3ddc1a" stroke-width="1.5" fill="none" opacity="0.25"/><polygon points="180,70 206,85 206,115 180,130 154,115 154,85" stroke="#3ddc1a" stroke-width="1.5" fill="none" opacity="0.25"/><polygon points="300,70 326,85 326,115 300,130 274,115 274,85" stroke="#3ddc1a" stroke-width="1.5" fill="none" opacity="0.25"/><polygon points="120,180 146,195 146,225 120,240 94,225 94,195" stroke="#3ddc1a" stroke-width="1.5" fill="none" opacity="0.25"/><polygon points="240,180 266,195 266,225 240,240 214,225 214,195" stroke="#3ddc1a" stroke-width="1.5" fill="none" opacity="0.25"/><polygon points="360,180 386,195 386,225 360,240 334,225 334,195" stroke="#3ddc1a" stroke-width="1.5" fill="none" opacity="0.25"/><polygon points="60,290 86,305 86,335 60,350 34,335 34,305" stroke="#3ddc1a" stroke-width="1.5" fill="none" opacity="0.25"/><polygon points="180,290 206,305 206,335 180,350 154,335 154,305" stroke="#3ddc1a" stroke-width="1.5" fill="none" opacity="0.25"/><polygon points="300,290 326,305 326,335 300,350 274,335 274,305" stroke="#3ddc1a" stroke-width="1.5" fill="none" opacity="0.25"/><polygon points="120,400 146,415 146,445 120,460 94,445 94,415" stroke="#3ddc1a" stroke-width="1.5" fill="none" opacity="0.25"/><polygon points="240,400 266,415 266,445 240,460 214,445 214,415" stroke="#3ddc1a" stroke-width="1.5" fill="none" opacity="0.25"/><polygon points="360,400 386,415 386,445 360,460 334,445 334,415" stroke="#3ddc1a" stroke-width="1.5" fill="none" opacity="0.25"/><polygon points="60,510 86,525 86,555 60,570 34,555 34,525" stroke="#3ddc1a" stroke-width="1.5" fill="none" opacity="0.25"/><polygon points="180,510 206,525 206,555 180,570 154,555 154,525" stroke="#3ddc1a" stroke-width="1.5" fill="none" opacity="0.25"/><polygon points="300,510 326,525 326,555 300,570 274,555 274,525" stroke="#3ddc1a" stroke-width="1.5" fill="none" opacity="0.25"/>
<rect width="400" height="600" fill="url(#vgrad)"/>
<defs>
<linearGradient id="vgrad" x1="0" y1="0" x2="0" y2="1">
<stop offset="0%" stop-color="#0d1408" stop-opacity="0"/>
<stop offset="65%" stop-color="#0d1408" stop-opacity="0"/>
<stop offset="100%" stop-color="#000000" stop-opacity="0.85"/>
</linearGradient>
</defs>
<text x="200" y="450" text-anchor="middle" font-family="Helvetica, Arial, sans-serif" font-weight="800" font-size="40" fill="#ffffff" letter-spacing="2">BREAKING</text><text x="200" y="502" text-anchor="middle" font-family="Helvetica, Arial, sans-serif" font-weight="800" font-size="40" fill="#ffffff" letter-spacing="2">BAD</text>
<rect x="20" y="20" width="100" height="32" rx="4" fill="#3ddc1a" opacity="0.9"/>
<text x="70" y="42" text-anchor="middle" font-family="Helvetica, Arial, sans-serif" font-weight="700" font-size="14" fill="#000000">N SERIES</text>
</svg>