<svg width="400" height="600" viewBox="0 0 400 600" xmlns="http://www.w3.org/2000/svg">
<rect width="400" height="600" fill="#0a0a14"/>
<g opacity="0.35"><path d="M-20 120 Q 100 80 220 120 T 460 120" stroke="#e50914" stroke-width="3" fill="none"/><path d="M-20 180 Q 100 140 220 180 T 460 180" stroke="#e50914" stroke-width="3" fill="none"/><path d="M-20 240 Q 100 200 220 240 T 460 240" stroke="#e50914" stroke-width="3" fill="none"/><path d="M-20 300 Q 100 260 220 300 T 460 300" stroke="#e50914" stroke-width="3" fill="none"/><path d="M-20 360 Q 100 320 220 360 T 460 360" stroke="#e50914" stroke-width="3" fill="none"/><path d="M-20 420 Q 100 380 220 420 T 460 420" stroke="#e50914" stroke-width="3" fill="none"/></g>
<rect width="400" height="600" fill="url(#vgrad)"/>
<defs>
<linearGradient id="vgrad" x1="0" y1="0" x2="0" y2="1">
<stop offset="0%" stop-color="#0a0a14" stop-opacity="0"/>
<stop offset="65%" stop-color="#0a0a14" stop-opacity="0"/>
<stop offset="100%" stop-color="#000000" stop-opacity="0.85"/>
</linearGradient>
</defs>
<text x="200" y="450" text-anchor="middle" font-family="Helvetica, Arial, sans-serif" font-weight="800" font-size="40" fill="#ffffff" letter-spacing="2">STRANGER</text><text x="200" y="502" text-anchor="middle" font-family="Helvetica, Arial, sans-serif" font-weight="800" font-size="40" fill="#ffffff" letter-spacing="2">THINGS</text>
<rect x="20" y="20" width="100" height="32" rx="4" fill="#e50914" opacity="0.9"/>
<text x="70" y="42" text-anchor="middle" font-family="Helvetica, Arial, sans-serif" font-weight="700" font-size="14" fill="#000000">N SERIES</text>
</svg>