<svg width="400" height="600" viewBox="0 0 400 600" xmlns="http://www.w3.org/2000/svg">
<rect width="400" height="600" fill="#0a1018"/>
<g opacity="0.25"><path d="M60 120 c-20-30-60-10-60 20 c0 30 60 60 60 60 c0 0 60-30 60-60 c0-30-40-50-60-20 Z" fill="#ffb6c1"/><path d="M180 120 c-20-30-60-10-60 20 c0 30 60 60 60 60 c0 0 60-30 60-60 c0-30-40-50-60-20 Z" fill="#ffb6c1"/><path d="M300 120 c-20-30-60-10-60 20 c0 30 60 60 60 60 c0 0 60-30 60-60 c0-30-40-50-60-20 Z" fill="#ffb6c1"/><path d="M60 270 c-20-30-60-10-60 20 c0 30 60 60 60 60 c0 0 60-30 60-60 c0-30-40-50-60-20 Z" fill="#ffb6c1"/><path d="M180 270 c-20-30-60-10-60 20 c0 30 60 60 60 60 c0 0 60-30 60-60 c0-30-40-50-60-20 Z" fill="#ffb6c1"/><path d="M300 270 c-20-30-60-10-60 20 c0 30 60 60 60 60 c0 0 60-30 60-60 c0-30-40-50-60-20 Z" fill="#ffb6c1"/></g>
<rect width="400" height="600" fill="url(#vgrad)"/>
<defs>
<linearGradient id="vgrad" x1="0" y1="0" x2="0" y2="1">
<stop offset="0%" stop-color="#0a1018" stop-opacity="0"/>
<stop offset="65%" stop-color="#0a1018" stop-opacity="0"/>
<stop offset="100%" stop-color="#000000" stop-opacity="0.85"/>
</linearGradient>
</defs>
<text x="200" y="450" text-anchor="middle" font-family="Helvetica, Arial, sans-serif" font-weight="800" font-size="40" fill="#ffffff" letter-spacing="2">BUSINESS</text><text x="200" y="502" text-anchor="middle" font-family="Helvetica, Arial, sans-serif" font-weight="800" font-size="40" fill="#ffffff" letter-spacing="2">PROPOSAL</text>
<rect x="20" y="20" width="100" height="32" rx="4" fill="#ffb6c1" opacity="0.9"/>
<text x="70" y="42" text-anchor="middle" font-family="Helvetica, Arial, sans-serif" font-weight="700" font-size="14" fill="#000000">N SERIES</text>
</svg>