<svg width="400" height="600" viewBox="0 0 400 600" xmlns="http://www.w3.org/2000/svg">
<rect width="400" height="600" fill="#05050a"/>
<g opacity="0.3"><circle cx="200" cy="300" r="140" stroke="#ff3333" stroke-width="4" fill="none"/><line x1="200" y1="300" x2="200" y2="190" stroke="#ff3333" stroke-width="5"/><line x1="200" y1="300" x2="280" y2="320" stroke="#ff3333" stroke-width="5"/><line x1="325.0" y1="300.0" x2="340.0" y2="300.0" stroke="#ff3333" stroke-width="2"/><line x1="308.25317547305485" y1="362.5" x2="321.24355652982143" y2="370.0" stroke="#ff3333" stroke-width="2"/><line x1="262.5" y1="408.25317547305485" x2="270.0" y2="421.2435565298214" stroke="#ff3333" stroke-width="2"/><line x1="200.0" y1="425.0" x2="200.0" y2="440.0" stroke="#ff3333" stroke-width="2"/><line x1="137.50000000000003" y1="408.25317547305485" x2="130.00000000000003" y2="421.24355652982143" stroke="#ff3333" stroke-width="2"/><line x1="91.74682452694516" y1="362.5" x2="78.75644347017858" y2="370.0" stroke="#ff3333" stroke-width="2"/><line x1="75.0" y1="300.0" x2="60.0" y2="300.0" stroke="#ff3333" stroke-width="2"/><line x1="91.74682452694518" y1="237.5" x2="78.7564434701786" y2="230.0" stroke="#ff3333" stroke-width="2"/><line x1="137.49999999999994" y1="191.7468245269452" x2="129.99999999999994" y2="178.75644347017862" stroke="#ff3333" stroke-width="2"/><line x1="199.99999999999997" y1="175.0" x2="199.99999999999997" y2="160.0" stroke="#ff3333" stroke-width="2"/><line x1="262.5" y1="191.74682452694518" x2="270.0" y2="178.7564434701786" stroke="#ff3333" stroke-width="2"/><line x1="308.2531754730548" y1="237.49999999999994" x2="321.2435565298214" y2="229.99999999999994" stroke="#ff3333" stroke-width="2"/></g>
<rect width="400" height="600" fill="url(#vgrad)"/>
<defs>
<linearGradient id="vgrad" x1="0" y1="0" x2="0" y2="1">
<stop offset="0%" stop-color="#05050a" stop-opacity="0"/>
<stop offset="65%" stop-color="#05050a" stop-opacity="0"/>
<stop offset="100%" stop-color="#000000" stop-opacity="0.85"/>
</linearGradient>
</defs>
<text x="200" y="480" text-anchor="middle" font-family="Helvetica, Arial, sans-serif" font-weight="800" font-size="40" fill="#ffffff" letter-spacing="2">DARK</text>
<rect x="20" y="20" width="100" height="32" rx="4" fill="#ff3333" opacity="0.9"/>
<text x="70" y="42" text-anchor="middle" font-family="Helvetica, Arial, sans-serif" font-weight="700" font-size="14" fill="#000000">N SERIES</text>
</svg>