<svg width="400" height="600" viewBox="0 0 400 600" xmlns="http://www.w3.org/2000/svg">
<rect width="400" height="600" fill="#140505"/>
<g opacity="0.35"><path d="M50 550 C 30 450 70 400 50 300 C 30 400 10 450 50 550 Z" fill="#ff6600"/><path d="M120 550 C 100 450 140 400 120 300 C 100 400 80 450 120 550 Z" fill="#ff6600"/><path d="M190 550 C 170 450 210 400 190 300 C 170 400 150 450 190 550 Z" fill="#ff6600"/><path d="M260 550 C 240 450 280 400 260 300 C 240 400 220 450 260 550 Z" fill="#ff6600"/><path d="M330 550 C 310 450 350 400 330 300 C 310 400 290 450 330 550 Z" fill="#ff6600"/><path d="M400 550 C 380 450 420 400 400 300 C 380 400 360 450 400 550 Z" fill="#ff6600"/></g>
<rect width="400" height="600" fill="url(#vgrad)"/>
<defs>
<linearGradient id="vgrad" x1="0" y1="0" x2="0" y2="1">
<stop offset="0%" stop-color="#140505" stop-opacity="0"/>
<stop offset="65%" stop-color="#140505" stop-opacity="0"/>
<stop offset="100%" stop-color="#000000" stop-opacity="0.85"/>
</linearGradient>
</defs>
<text x="200" y="480" text-anchor="middle" font-family="Helvetica, Arial, sans-serif" font-weight="800" font-size="40" fill="#ffffff" letter-spacing="2">RRR</text>
<rect x="20" y="20" width="100" height="32" rx="4" fill="#ff6600" opacity="0.9"/>
<text x="70" y="42" text-anchor="middle" font-family="Helvetica, Arial, sans-serif" font-weight="700" font-size="14" fill="#000000">N SERIES</text>
</svg>